<svg width="26" height="23" viewBox="0 0 26 23" fill="none" xmlns="http://www.w3.org/2000/svg">
<g clip-path="url(#clip0_1_32)">
<path d="M10.9575 20.4746C9.96208 20.4746 9.00065 20.3439 8.07324 20.0825C7.14583 19.8211 6.27393 19.4487 5.45752 18.9653C4.64111 18.4819 3.8999 17.9072 3.23389 17.2412C2.56787 16.5752 1.99316 15.834 1.50977 15.0176C1.02637 14.2012 0.653971 13.3293 0.392578 12.4019C0.131185 11.4744 0.000488281 10.513 0.000488281 9.51758C0.000488281 8.51497 0.131185 7.55176 0.392578 6.62793C0.653971 5.7041 1.02458 4.83398 1.50439 4.01758C1.98421 3.20117 2.55713 2.45996 3.22314 1.79395C3.88916 1.12793 4.63037 0.553223 5.44678 0.0698242C6.26318 -0.413574 7.13509 -0.785971 8.0625 -1.04736C8.98991 -1.30876 9.95133 -1.43945 10.9468 -1.43945C11.9494 -1.43945 12.9144 -1.30876 13.8418 -1.04736C14.7692 -0.785971 15.6393 -0.413574 16.4521 0.0698242C17.265 0.553223 18.0062 1.12793 18.6758 1.79395C19.3454 2.45996 19.9219 3.20117 20.4053 4.01758C20.8887 4.83398 21.2611 5.7041 21.5225 6.62793C21.7839 7.55176 21.9146 8.51497 21.9146 9.51758C21.9146 10.513 21.7839 11.4744 21.5225 12.4019C21.2611 13.3293 20.8887 14.2012 20.4053 15.0176C19.9219 15.834 19.3472 16.5752 18.6812 17.2412C18.0151 17.9072 17.2739 18.4819 16.4575 18.9653C15.6411 19.4487 14.771 19.8211 13.8472 20.0825C12.9233 20.3439 11.9601 20.4746 10.9575 20.4746ZM10.9575 18.6484C11.9744 18.6484 12.9395 18.4963 13.8525 18.1919C14.7656 17.8875 15.6017 17.4561 16.3608 16.8975C17.12 16.3389 17.7788 15.68 18.3374 14.9209C18.896 14.1618 19.3275 13.3257 19.6318 12.4126C19.9362 11.4995 20.0884 10.5345 20.0884 9.51758C20.0884 8.50065 19.9344 7.53564 19.6265 6.62256C19.3185 5.70947 18.8853 4.87337 18.3267 4.11426C17.7681 3.35514 17.1092 2.69629 16.3501 2.1377C15.591 1.5791 14.7549 1.14762 13.8418 0.843262C12.9287 0.5389 11.9637 0.386719 10.9468 0.386719C9.92985 0.386719 8.96663 0.5389 8.05713 0.843262C7.14762 1.14762 6.31331 1.5791 5.5542 2.1377C4.79508 2.69629 4.13802 3.35514 3.58301 4.11426C3.02799 4.87337 2.59831 5.70947 2.29395 6.62256C1.98958 7.53564 1.8374 8.50065 1.8374 9.51758C1.8374 10.5345 1.98958 11.4995 2.29395 12.4126C2.59831 13.3257 3.02799 14.1618 3.58301 14.9209C4.13802 15.68 4.79508 16.3389 5.5542 16.8975C6.31331 17.4561 7.14941 17.8875 8.0625 18.1919C8.97559 18.4963 9.94059 18.6484 10.9575 18.6484ZM9.06689 13.4707C8.90934 13.5638 8.75358 13.605 8.59961 13.5942C8.44564 13.5835 8.31673 13.528 8.21289 13.4277C8.10905 13.3275 8.05713 13.1986 8.05713 13.041V6.00488C8.05713 5.84017 8.11084 5.71126 8.21826 5.61816C8.32568 5.52507 8.45817 5.47314 8.61572 5.4624C8.77327 5.45166 8.92367 5.48926 9.06689 5.5752L14.8247 8.98047C14.9608 9.05925 15.0521 9.16846 15.0986 9.30811C15.1452 9.44775 15.147 9.5874 15.104 9.72705C15.061 9.8667 14.9679 9.97949 14.8247 10.0654L9.06689 13.4707Z" fill="#1D1D1D"/>
</g>
<defs>
<clipPath id="clip0_1_32">
<rect width="25.75" height="22" fill="white" transform="matrix(1 0 0 -1 0 22.5801)"/>
</clipPath>
</defs>
</svg>
