<svg width="18" height="15" viewBox="0 0 18 15" fill="none" xmlns="http://www.w3.org/2000/svg">
<g clip-path="url(#clip0_1_18)">
<path d="M7.7168 13.4102C7.08333 13.4102 6.47152 13.327 5.88135 13.1606C5.29118 12.9943 4.73633 12.7573 4.2168 12.4497C3.69727 12.1421 3.22559 11.7764 2.80176 11.3525C2.37793 10.9287 2.01221 10.457 1.70459 9.9375C1.39697 9.41797 1.15999 8.86312 0.993652 8.27295C0.827311 7.68278 0.744141 7.07096 0.744141 6.4375C0.744141 5.79948 0.827311 5.18652 0.993652 4.59863C1.15999 4.01074 1.39583 3.45703 1.70117 2.9375C2.00651 2.41797 2.37109 1.94629 2.79492 1.52246C3.21875 1.09863 3.69043 0.73291 4.20996 0.425293C4.72949 0.117676 5.28434 -0.119304 5.87451 -0.285645C6.46468 -0.451985 7.0765 -0.535156 7.70996 -0.535156C8.34798 -0.535156 8.96208 -0.451985 9.55225 -0.285645C10.1424 -0.119304 10.6961 0.117676 11.2134 0.425293C11.7306 0.73291 12.2023 1.09863 12.6284 1.52246C13.0545 1.94629 13.4214 2.41797 13.729 2.9375C14.0366 3.45703 14.2736 4.01074 14.4399 4.59863C14.6063 5.18652 14.6895 5.79948 14.6895 6.4375C14.6895 7.07096 14.6063 7.68278 14.4399 8.27295C14.2736 8.86312 14.0366 9.41797 13.729 9.9375C13.4214 10.457 13.0557 10.9287 12.6318 11.3525C12.208 11.7764 11.7363 12.1421 11.2168 12.4497C10.6973 12.7573 10.1436 12.9943 9.55566 13.1606C8.96777 13.327 8.35482 13.4102 7.7168 13.4102ZM6.47266 9.07617L10.3145 6.7998C10.4102 6.74512 10.4728 6.67106 10.5024 6.57764C10.5321 6.48421 10.5309 6.39079 10.499 6.29736C10.4671 6.20394 10.4056 6.12988 10.3145 6.0752L6.47266 3.79883C6.37695 3.73958 6.27669 3.71452 6.17188 3.72363C6.06706 3.73275 5.97819 3.76807 5.90527 3.82959C5.83236 3.89111 5.7959 3.97428 5.7959 4.0791V8.78906C5.7959 8.89388 5.83008 8.97933 5.89844 9.04541C5.9668 9.11149 6.05339 9.14795 6.1582 9.15479C6.26302 9.16162 6.36784 9.13542 6.47266 9.07617Z" fill="#1D1D1F"/>
</g>
<defs>
<clipPath id="clip0_1_18">
<rect width="16.71" height="14" fill="white" transform="matrix(1 0 0 -1 0.470001 14.75)"/>
</clipPath>
</defs>
</svg>
