<svg width="23" height="2" viewBox="0 0 23 2" fill="none" xmlns="http://www.w3.org/2000/svg">
<g clip-path="url(#clip0_1_9)">
<path d="M9.70072 1.6543C8.8746 1.6543 8.07671 1.64836 7.30706 1.63647C6.5374 1.62459 5.8138 1.60767 5.13627 1.58569C4.45873 1.56372 3.8436 1.5376 3.29088 1.50732C2.73815 1.47705 2.2612 1.44336 1.86003 1.40625C1.45886 1.36914 1.14981 1.32951 0.932878 1.28735C0.715948 1.2452 0.607483 1.2015 0.607483 1.15625C0.607483 1.11068 0.715948 1.06689 0.932878 1.0249C1.14981 0.98291 1.45737 0.943359 1.85557 0.90625C2.25377 0.869141 2.72924 0.835449 3.28196 0.805176C3.83469 0.774902 4.44982 0.748779 5.12735 0.726807C5.80489 0.704834 6.52849 0.687907 7.29814 0.676025C8.0678 0.664144 8.86568 0.658203 9.6918 0.658203C10.5239 0.658203 11.3247 0.664144 12.0944 0.676025C12.864 0.687907 13.5861 0.704834 14.2607 0.726807C14.9353 0.748779 15.5504 0.774902 16.1061 0.805176C16.6618 0.835449 17.1402 0.869141 17.5414 0.90625C17.9426 0.943359 18.2516 0.98291 18.4686 1.0249C18.6855 1.06689 18.7939 1.11068 18.7939 1.15625C18.7939 1.2015 18.6855 1.2452 18.4686 1.28735C18.2516 1.32951 17.9426 1.36914 17.5414 1.40625C17.1402 1.44336 16.6633 1.47705 16.1106 1.50732C15.5578 1.5376 14.9427 1.56372 14.2652 1.58569C13.5876 1.60767 12.8655 1.62459 12.0988 1.63647C11.3321 1.64836 10.5328 1.6543 9.70072 1.6543ZM8.0782 1.34473L13.0884 1.18213C13.2132 1.17822 13.2949 1.17293 13.3336 1.16626C13.3722 1.15959 13.3707 1.15291 13.3291 1.14624C13.2875 1.13957 13.2073 1.13428 13.0884 1.13037L8.0782 0.967773C7.95339 0.963542 7.82264 0.961751 7.68594 0.962402C7.54925 0.963053 7.43335 0.965576 7.33826 0.969971C7.24317 0.974365 7.19562 0.980306 7.19562 0.987793V1.32422C7.19562 1.33171 7.24019 1.33781 7.32934 1.34253C7.41849 1.34725 7.53142 1.34985 7.66811 1.35034C7.80481 1.35083 7.9415 1.34896 8.0782 1.34473Z" fill="#1D1D1F"/>
</g>
<defs>
<clipPath id="clip0_1_9">
<rect width="21.792" height="1" fill="white" transform="matrix(1 0 0 -1 0.25 1.75)"/>
</clipPath>
</defs>
</svg>
