<svg width="25" height="45" viewBox="0 0 25 45" fill="none" xmlns="http://www.w3.org/2000/svg">
<path d="M15.3775 24.2002C15.3775 25.1022 14.6095 25.7822 13.5725 25.7822C12.8405 25.7822 12.2955 25.4072 12.2955 24.7622C12.2955 24.1302 12.7175 23.7962 13.6785 23.7312L15.3775 23.6202V24.2002ZM13.9825 20.1282C12.6355 20.1282 11.6395 20.7962 11.5045 21.8092H12.5235C12.6645 21.3112 13.1915 21.0242 13.9475 21.0242C14.8915 21.0242 15.3775 21.4522 15.3775 22.2312V22.8052L13.5555 22.9172C12.0845 23.0052 11.2525 23.6552 11.2525 24.7862C11.2525 25.9402 12.1605 26.6672 13.3855 26.6672C14.2295 26.6672 14.9205 26.2982 15.3305 25.6242H15.4245V26.5552H16.3855V22.2312C16.3855 20.9192 15.5235 20.1282 13.9825 20.1282ZM20.7515 25.7032C19.5965 25.7032 18.9055 24.8182 18.9055 23.3422C18.9055 21.8712 19.6025 20.9802 20.7515 20.9802C21.8935 20.9802 22.6085 21.8942 22.6085 23.3422C22.6085 24.8012 21.8995 25.7032 20.7515 25.7032ZM22.5855 17.6762V21.1792H22.4975C22.1395 20.4882 21.3955 20.0722 20.5165 20.0722C18.9115 20.0722 17.8625 21.3612 17.8625 23.3422C17.8625 25.3282 18.8995 26.6112 20.5165 26.6112C21.3895 26.6112 22.1395 26.1952 22.5385 25.4922H22.6315V26.5002H23.5925V17.6762H22.5855ZM7.19147 22.5452H5.32847V18.9822H7.19147C8.41647 18.9822 9.09047 19.6212 9.09047 20.7812C9.09047 21.9002 8.39347 22.5452 7.19147 22.5452ZM7.46747 18.0452H4.27347V26.5002H5.32847V23.4822H7.45547C9.04347 23.4822 10.1745 22.3632 10.1745 20.7812C10.1745 19.1702 9.06647 18.0452 7.46747 18.0452ZM1.40347 26.4992H2.41147V20.1832H1.40347V26.4992ZM1.20447 18.2622C1.20447 17.8752 1.52047 17.5582 1.90747 17.5582C2.29447 17.5582 2.61047 17.8752 2.61047 18.2622C2.61047 18.6482 2.29447 18.9652 1.90747 18.9652C1.52047 18.9652 1.20447 18.6482 1.20447 18.2622Z" fill="white" fill-opacity="0.8"/>
</svg>
