<svg width="66" height="45" viewBox="0 0 66 45" fill="none" xmlns="http://www.w3.org/2000/svg">
<path d="M4.50551 26.5V18.9941H1.78091V18.0449H8.28481V18.9941H5.56021V26.5H4.50551ZM12.2369 26.5L9.11971 18.0449H10.2271L12.7115 25.1347H12.8053L15.2897 18.0449H16.3971L13.2799 26.5H12.2369ZM26.2179 25.6562C25.4972 26.289 24.507 26.6582 23.4816 26.6582C21.8 26.6582 20.6222 25.6621 20.6222 24.2441C20.6222 23.2421 21.1671 22.4804 22.298 21.8828C22.3742 21.8476 22.5324 21.7656 22.6261 21.7187C21.8468 20.8984 21.5656 20.3535 21.5656 19.7382C21.5656 18.6542 22.4855 17.8456 23.7218 17.8456C24.9698 17.8456 25.878 18.6425 25.878 19.7499C25.878 20.6171 25.3565 21.2499 24.0499 21.9354L26.1651 24.2088C26.4288 23.6815 26.5635 22.99 26.5635 21.9354V21.7889H27.5479V21.9412C27.5479 23.2537 27.3135 24.2088 26.8506 24.9236L28.3214 26.5H26.9972L26.2179 25.6562ZM21.6769 24.1738C21.6769 25.123 22.4445 25.7676 23.5753 25.7676C24.3429 25.7676 25.1339 25.4629 25.5968 24.9766L23.2062 22.3633C23.1417 22.3867 22.9894 22.4629 22.9074 22.5039C22.0929 22.9258 21.6769 23.5117 21.6769 24.1738ZM24.8878 19.7852C24.8878 19.129 24.4132 18.6836 23.7276 18.6836C23.0538 18.6836 22.5733 19.1406 22.5733 19.7969C22.5733 20.2657 22.8135 20.6758 23.4815 21.3379C24.5128 20.8105 24.8878 20.3887 24.8878 19.7852ZM38.4054 26.5V22.6504H33.7648V26.5H32.7101V18.0449H33.7648V21.7011H38.4054V18.0449H39.4601V26.5H38.4054ZM41.0509 23.3418C41.0509 21.3086 42.1642 20.0723 43.963 20.0723C45.7618 20.0723 46.8751 21.3086 46.8751 23.3418C46.8751 25.3691 45.7618 26.6113 43.963 26.6113C42.1642 26.6113 41.0509 25.3691 41.0509 23.3418ZM45.8321 23.3418C45.8321 21.8418 45.1583 20.9805 43.963 20.9805C42.7677 20.9805 42.0939 21.8418 42.0939 23.3418C42.0939 24.8359 42.7677 25.7031 43.963 25.7031C45.1583 25.7031 45.8321 24.8359 45.8321 23.3418ZM48.3375 20.1836H49.2984V21.1797H49.3922C49.6793 20.4766 50.3121 20.0723 51.1559 20.0723C52.0114 20.0723 52.609 20.5235 52.902 21.1797H52.9958C53.3356 20.5117 54.0563 20.0723 54.9294 20.0723C56.2185 20.0723 56.9392 20.8106 56.9392 22.1348V26.5H55.9314V22.3691C55.9314 21.4375 55.4919 20.9804 54.6013 20.9804C53.7224 20.9804 53.1365 21.6366 53.1365 22.4394V26.5H52.1287V22.2109C52.1287 21.4609 51.6072 20.9804 50.8103 20.9804C49.9841 20.9804 49.3455 21.6952 49.3455 22.5859V26.5H48.3377L48.3375 20.1836ZM63.8502 24.8652C63.5572 25.9433 62.5729 26.6113 61.19 26.6113C59.438 26.6113 58.3423 25.3457 58.3423 23.3476C58.3423 21.3613 59.4556 20.0722 61.19 20.0722C62.8951 20.0722 63.9322 21.2851 63.9322 23.248V23.6347H59.3912V23.6816C59.4439 24.9296 60.1412 25.7207 61.2135 25.7207C62.028 25.7207 62.5787 25.4219 62.8424 24.8652H63.8502ZM59.3912 22.8203H62.8717C62.8483 21.7012 62.1803 20.9629 61.1783 20.9629C60.1705 20.9629 59.4674 21.7012 59.3912 22.8203Z" fill="white" fill-opacity="0.8"/>
</svg>
