<svg width="24" height="45" viewBox="0 0 24 45" fill="none" xmlns="http://www.w3.org/2000/svg">
<g clip-path="url(#clip0_1_261)">
<path d="M8.43583 26.4987V20.0417H8.36553L5.69953 26.4987H4.80883L2.14283 20.0417H2.07253V26.4987H1.08813V18.0436H2.31273L5.20723 25.0983H5.30103L8.19553 18.0436H9.42013V26.4987H8.43583ZM10.9524 24.7291C10.9524 23.5982 11.7844 22.9479 13.2551 22.86L15.0774 22.7487V22.1745C15.0774 21.3952 14.5911 20.9675 13.6477 20.9675C12.8918 20.9675 12.3645 21.2546 12.2239 21.7527H11.2044C11.3392 20.739 12.3353 20.0711 13.6829 20.0711C15.2239 20.0711 16.0852 20.8621 16.0852 22.1746V26.4988H15.1243V25.567H15.0305C14.6203 26.2408 13.9289 26.61 13.0852 26.61C11.8606 26.61 10.9524 25.8834 10.9524 24.7291ZM15.0774 24.1432V23.5631L13.3782 23.6744C12.4173 23.7389 11.9954 24.0728 11.9954 24.7056C11.9954 25.3501 12.5403 25.7251 13.2727 25.7251C14.3098 25.7252 15.0774 25.0455 15.0774 24.1432ZM22.0354 22.1159C21.8713 21.4889 21.3147 20.9792 20.4065 20.9792C19.2698 20.9792 18.5549 21.8874 18.5549 23.3171C18.5549 24.7761 19.2815 25.7019 20.4065 25.7019C21.2561 25.7019 21.8479 25.3093 22.0354 24.5945H23.0549C22.8733 25.7547 21.9299 26.6101 20.4123 26.6101C18.6428 26.6101 17.5119 25.3269 17.5119 23.3171C17.5119 21.3483 18.6369 20.071 20.4064 20.071C21.9416 20.071 22.8791 20.9909 23.0548 22.1159H22.0354Z" fill="white" fill-opacity="0.8"/>
</g>
<defs>
<clipPath id="clip0_1_261">
<rect width="23" height="44" fill="white" transform="translate(0.280029 0.5)"/>
</clipPath>
</defs>
</svg>
