<svg width="68" height="45" viewBox="0 0 68 45" fill="none" xmlns="http://www.w3.org/2000/svg">
<g clip-path="url(#clip0_1_279)">
<path d="M6.07033 24.0715H2.70703L1.85743 26.4914H0.750031L3.86723 18.0363H4.91023L8.02743 26.4914H6.91993L6.07033 24.0715ZM3.01763 23.175H5.75983L4.43563 19.4016H4.34183L3.01763 23.175ZM13.1162 22.1086C12.9521 21.4816 12.3955 20.9719 11.4873 20.9719C10.3506 20.9719 9.63573 21.8801 9.63573 23.3098C9.63573 24.7688 10.3623 25.6946 11.4873 25.6946C12.3369 25.6946 12.9287 25.302 13.1162 24.5872H14.1357C13.9541 25.7474 13.0107 26.6028 11.4931 26.6028C9.72363 26.6028 8.59273 25.3196 8.59273 23.3098C8.59273 21.341 9.71773 20.0637 11.4872 20.0637C13.0224 20.0637 13.9599 20.9836 14.1356 22.1086H13.1162ZM19.7109 22.1086C19.5468 21.4816 18.9902 20.9719 18.082 20.9719C16.9453 20.9719 16.2304 21.8801 16.2304 23.3098C16.2304 24.7688 16.957 25.6946 18.082 25.6946C18.9316 25.6946 19.5234 25.302 19.7109 24.5872H20.7304C20.5488 25.7474 19.6054 26.6028 18.0878 26.6028C16.3183 26.6028 15.1874 25.3196 15.1874 23.3098C15.1874 21.341 16.3124 20.0637 18.0819 20.0637C19.6171 20.0637 20.5546 20.9836 20.7303 22.1086H19.7109ZM27.2905 24.8566C26.9975 25.9347 26.0132 26.6027 24.6303 26.6027C22.8783 26.6027 21.7826 25.3371 21.7826 23.339C21.7826 21.3527 22.8959 20.0636 24.6303 20.0636C26.3354 20.0636 27.3725 21.2765 27.3725 23.2394V23.6261H22.8315V23.673C22.8842 24.921 23.5815 25.7121 24.6538 25.7121C25.4683 25.7121 26.019 25.4133 26.2827 24.8566H27.2905ZM22.8315 22.8117H26.312C26.2886 21.6926 25.6206 20.9543 24.6186 20.9543C23.6108 20.9543 22.9077 21.6926 22.8315 22.8117ZM31.0435 20.0637C32.3677 20.0637 33.2876 20.7199 33.4224 21.7571H32.4263C32.2915 21.2532 31.7993 20.9192 31.0376 20.9192C30.2876 20.9192 29.7017 21.3001 29.7017 21.8626C29.7017 22.2962 30.0533 22.5657 30.7974 22.7474L31.7701 22.9818C32.9596 23.2689 33.5338 23.7845 33.5338 24.6927C33.5338 25.8236 32.4381 26.6029 31.0026 26.6029C29.5964 26.6029 28.6296 25.9291 28.5182 24.8802H29.5553C29.7252 25.4134 30.2291 25.7532 31.0377 25.7532C31.8873 25.7532 32.4967 25.3489 32.4967 24.7688C32.4967 24.3352 32.1686 24.0422 31.4947 23.8782L30.4107 23.6145C29.2271 23.3274 28.688 22.8176 28.688 21.9036C28.688 20.8547 29.7017 20.0637 31.0435 20.0637ZM37.0874 20.0637C38.4116 20.0637 39.3315 20.7199 39.4663 21.7571H38.4702C38.3354 21.2532 37.8432 20.9192 37.0815 20.9192C36.3315 20.9192 35.7456 21.3001 35.7456 21.8626C35.7456 22.2962 36.0972 22.5657 36.8413 22.7474L37.814 22.9818C39.0035 23.2689 39.5777 23.7845 39.5777 24.6927C39.5777 25.8236 38.482 26.6029 37.0465 26.6029C35.6403 26.6029 34.6735 25.9291 34.5621 24.8802H35.5992C35.7691 25.4134 36.273 25.7532 37.0816 25.7532C37.9312 25.7532 38.5406 25.3489 38.5406 24.7688C38.5406 24.3352 38.2125 24.0422 37.5386 23.8782L36.4546 23.6145C35.271 23.3274 34.7319 22.8176 34.7319 21.9036C34.7319 20.8547 35.7456 20.0637 37.0874 20.0637ZM40.7231 23.3332C40.7231 21.3 41.8364 20.0637 43.6352 20.0637C45.434 20.0637 46.5473 21.3 46.5473 23.3332C46.5473 25.3605 45.434 26.6027 43.6352 26.6027C41.8364 26.6027 40.7231 25.3605 40.7231 23.3332ZM45.5044 23.3332C45.5044 21.8332 44.8306 20.9719 43.6353 20.9719C42.44 20.9719 41.7662 21.8332 41.7662 23.3332C41.7662 24.8273 42.44 25.6945 43.6353 25.6945C44.8306 25.6945 45.5044 24.8273 45.5044 23.3332ZM48.0098 20.175H48.9707V21.1125H49.0645C49.252 20.4973 49.9786 20.0637 50.8165 20.0637C50.9806 20.0637 51.1915 20.0754 51.3204 20.093V21.1008C51.2384 21.0774 50.8751 21.0422 50.6759 21.0422C49.715 21.0422 49.0177 21.6867 49.0177 22.5774V26.4915H48.0099L48.0098 20.175ZM52.2842 18.2531C52.2842 17.8664 52.6006 17.55 52.9873 17.55C53.374 17.55 53.6904 17.8664 53.6904 18.2531C53.6904 18.6398 53.374 18.9562 52.9873 18.9562C52.6006 18.9562 52.2842 18.6398 52.2842 18.2531ZM52.4834 20.175H53.4912V26.4914H52.4834V20.175ZM60.4844 24.8566C60.1914 25.9347 59.2071 26.6027 57.8242 26.6027C56.0722 26.6027 54.9765 25.3371 54.9765 23.339C54.9765 21.3527 56.0898 20.0636 57.8242 20.0636C59.5293 20.0636 60.5664 21.2765 60.5664 23.2394V23.6261H56.0254V23.673C56.0781 24.921 56.7754 25.7121 57.8477 25.7121C58.6622 25.7121 59.2129 25.4133 59.4766 24.8566H60.4844ZM56.0254 22.8117H59.5059C59.4825 21.6926 58.8145 20.9543 57.8125 20.9543C56.8047 20.9543 56.1016 21.6926 56.0254 22.8117ZM64.2373 20.0637C65.5615 20.0637 66.4814 20.7199 66.6162 21.7571H65.6201C65.4853 21.2532 64.9931 20.9192 64.2314 20.9192C63.4814 20.9192 62.8955 21.3001 62.8955 21.8626C62.8955 22.2962 63.2471 22.5657 63.9912 22.7474L64.9639 22.9818C66.1534 23.2689 66.7276 23.7845 66.7276 24.6927C66.7276 25.8236 65.6319 26.6029 64.1964 26.6029C62.7902 26.6029 61.8234 25.9291 61.712 24.8802H62.7491C62.919 25.4134 63.4229 25.7532 64.2315 25.7532C65.0811 25.7532 65.6905 25.3489 65.6905 24.7688C65.6905 24.3352 65.3624 24.0422 64.6885 23.8782L63.6045 23.6145C62.4209 23.3274 61.8818 22.8176 61.8818 21.9036C61.8818 20.8547 62.8955 20.0637 64.2373 20.0637Z" fill="white" fill-opacity="0.8"/>
</g>
<defs>
<clipPath id="clip0_1_279">
<rect width="67" height="44" fill="white" transform="translate(0.410034 0.5)"/>
</clipPath>
</defs>
</svg>
