<svg width="35" height="45" viewBox="0 0 35 45" fill="none" xmlns="http://www.w3.org/2000/svg">
<g clip-path="url(#clip0_1_269)">
<path d="M1.24432 18.0449H2.35172L4.83612 25.1347H4.92992L7.41432 18.0449H8.52172L5.40452 26.5H4.36152L1.24432 18.0449ZM9.59102 18.2617C9.59102 17.875 9.90742 17.5586 10.2941 17.5586C10.6808 17.5586 10.9972 17.875 10.9972 18.2617C10.9972 18.6484 10.6808 18.9648 10.2941 18.9648C9.90742 18.9648 9.59102 18.6484 9.59102 18.2617ZM9.77852 20.1836H10.798V26.5H9.77852V20.1836ZM12.2775 24.8887H13.3205C13.4904 25.416 13.9943 25.7617 14.8029 25.7617C15.6525 25.7617 16.256 25.3574 16.256 24.7832V24.7715C16.256 24.3438 15.9337 24.0449 15.1544 23.8574L14.1759 23.623C12.9923 23.3418 12.4591 22.8261 12.4591 21.9179V21.912C12.4591 20.8632 13.4669 20.0722 14.8087 20.0722C16.1329 20.0722 17.0528 20.7343 17.1935 21.7656H16.1915C16.0567 21.2676 15.5645 20.9218 14.8028 20.9218C14.0528 20.9218 13.502 21.3085 13.502 21.8652V21.8769C13.502 22.3046 13.8184 22.5742 14.5625 22.7558L15.5352 22.9902C16.7247 23.2773 17.2989 23.7929 17.2989 24.6953V24.707C17.2989 25.832 16.2032 26.6113 14.7677 26.6113C13.3615 26.6113 12.3947 25.9317 12.2775 24.8887ZM18.5978 18.2617C18.5978 17.875 18.9142 17.5586 19.3009 17.5586C19.6876 17.5586 20.004 17.875 20.004 18.2617C20.004 18.6484 19.6876 18.9648 19.3009 18.9648C18.9142 18.9648 18.5978 18.6484 18.5978 18.2617ZM18.7853 20.1836H19.8048V26.5H18.7853V20.1836ZM21.2902 23.3477V23.336C21.2902 21.3087 22.4035 20.0723 24.2023 20.0723C26.0011 20.0723 27.1144 21.3086 27.1144 23.336V23.3477C27.1144 25.3692 26.0011 26.6114 24.2023 26.6114C22.4035 26.6114 21.2902 25.3692 21.2902 23.3477ZM26.0714 23.3477V23.336C26.0714 21.8419 25.3976 20.9747 24.2023 20.9747C23.007 20.9747 22.3332 21.8419 22.3332 23.336V23.3477C22.3332 24.836 23.007 25.709 24.2023 25.709C25.3976 25.709 26.0714 24.836 26.0714 23.3477ZM28.5763 20.1836H29.5958V21.1328H29.6896C30.006 20.4648 30.5978 20.0723 31.5294 20.0723C32.9474 20.0723 33.7384 20.9102 33.7384 22.4102V26.5H32.7189V22.6562C32.7189 21.5195 32.2501 20.9746 31.2423 20.9746C30.2345 20.9746 29.5958 21.6543 29.5958 22.7617V26.5H28.5763V20.1836Z" fill="white" fill-opacity="0.8"/>
</g>
<defs>
<clipPath id="clip0_1_269">
<rect width="34" height="44" fill="white" transform="translate(0.840027 0.5)"/>
</clipPath>
</defs>
</svg>
