<svg width="44" height="45" viewBox="0 0 44 45" fill="none" xmlns="http://www.w3.org/2000/svg">
<g clip-path="url(#clip0_1_273)">
<path d="M12.6953 20.1836H13.6563V21.1206H13.7503C13.9373 20.5056 14.6643 20.0726 15.5023 20.0726C15.6663 20.0726 15.8773 20.0836 16.0063 20.1016V21.1096C15.9243 21.0856 15.5603 21.0506 15.3613 21.0506C14.4003 21.0506 13.7033 21.6956 13.7033 22.5856V26.4996H12.6953V20.1836ZM40.8303 20.0726C42.1543 20.0726 43.0743 20.7286 43.2093 21.7656H42.2133C42.0783 21.2616 41.5863 20.9276 40.8243 20.9276C40.0743 20.9276 39.4883 21.3086 39.4883 21.8706C39.4883 22.3046 39.8403 22.5746 40.5843 22.7556L41.5573 22.9906C42.7463 23.2776 43.3203 23.7926 43.3203 24.7016C43.3203 25.8316 42.2253 26.6116 40.7893 26.6116C39.3833 26.6116 38.4163 25.9376 38.3053 24.8886H39.3423C39.5123 25.4216 40.0163 25.7616 40.8243 25.7616C41.6743 25.7616 42.2833 25.3576 42.2833 24.7776C42.2833 24.3436 41.9553 24.0506 41.2813 23.8866L40.1973 23.6226C39.0143 23.3356 38.4753 22.8266 38.4753 21.9126C38.4753 20.8636 39.4883 20.0726 40.8303 20.0726ZM34.1653 25.7036C33.0103 25.7036 32.3193 24.8186 32.3193 23.3416C32.3193 21.8706 33.0163 20.9806 34.1653 20.9806C35.3073 20.9806 36.0223 21.8946 36.0223 23.3416C36.0223 24.8006 35.3133 25.7036 34.1653 25.7036ZM35.9993 17.6756V21.1796H35.9113C35.5533 20.4886 34.8093 20.0726 33.9303 20.0726C32.3253 20.0726 31.2763 21.3616 31.2763 23.3416C31.2763 25.3286 32.3133 26.6116 33.9303 26.6116C34.8033 26.6116 35.5533 26.1956 35.9523 25.4926H36.0463V26.4996H37.0073V17.6756H35.9993ZM26.9983 25.7036C25.8033 25.7036 25.1293 24.8356 25.1293 23.3416C25.1293 21.8416 25.8033 20.9806 26.9983 20.9806C28.1943 20.9806 28.8673 21.8416 28.8673 23.3416C28.8673 24.8356 28.1943 25.7036 26.9983 25.7036ZM26.9983 20.0726C25.1993 20.0726 24.0863 21.3086 24.0863 23.3416C24.0863 25.3696 25.1993 26.6116 26.9983 26.6116C28.7973 26.6116 29.9103 25.3696 29.9103 23.3416C29.9103 21.3086 28.7973 20.0726 26.9983 20.0726ZM9.92728 26.4996H10.9353V20.1836H9.92728V26.4996ZM9.72828 18.2616C9.72828 17.8746 10.0453 17.5586 10.4313 17.5586C10.8183 17.5586 11.1343 17.8746 11.1343 18.2616C11.1343 18.6486 10.8183 18.9646 10.4313 18.9646C10.0453 18.9646 9.72828 18.6486 9.72828 18.2616ZM3.59128 23.1836L4.91528 19.4106H5.00828L6.33328 23.1836H3.59128ZM5.48328 18.0446H4.44028L1.32328 26.4996H2.43028L3.28028 24.0796H6.64328L7.49328 26.4996H8.60028L5.48328 18.0446ZM20.3513 22.5446H18.4873V18.9826H20.3513C21.5753 18.9826 22.2493 19.6216 22.2493 20.7816C22.2493 21.9006 21.5523 22.5446 20.3513 22.5446ZM20.6263 18.0446H17.4333V26.4996H18.4873V23.4826H20.6143C22.2023 23.4826 23.3333 22.3636 23.3333 20.7816C23.3333 19.1696 22.2263 18.0446 20.6263 18.0446Z" fill="white" fill-opacity="0.8"/>
</g>
<defs>
<clipPath id="clip0_1_273">
<rect width="43" height="44" fill="white" transform="translate(0.97998 0.5)"/>
</clipPath>
</defs>
</svg>
