<svg width="78" height="45" viewBox="0 0 78 45" fill="none" xmlns="http://www.w3.org/2000/svg">
<g clip-path="url(#clip0_1_277)">
<path d="M0.27002 17.9863H5.50832V18.9355H1.32472V21.6484H5.29152V22.5859H1.32472V25.4921H5.50832V26.4413H0.27002V17.9863ZM7.16942 20.125H8.18892V21.0742H8.28272C8.59912 20.4062 9.19092 20.0137 10.1225 20.0137C11.5405 20.0137 12.3315 20.8516 12.3315 22.3516V26.4414H11.312V22.5976C11.312 21.4609 10.8432 20.916 9.83542 20.916C8.82762 20.916 8.18892 21.5957 8.18892 22.7031V26.4414H7.16942V20.125ZM14.4497 24.8008V20.9688H13.4536V20.125H14.4497V18.4902H15.5044V20.125H16.8872V20.9688H15.5044V24.543C15.5044 25.2871 15.7622 25.586 16.4185 25.586C16.6001 25.586 16.6997 25.5801 16.8873 25.5626V26.4298C16.6881 26.465 16.4947 26.4884 16.2955 26.4884C14.9946 26.4883 14.4497 26.0078 14.4497 24.8008ZM17.8862 23.3066V23.3007C17.8862 21.3495 18.9995 20.0136 20.7163 20.0136C22.4331 20.0136 23.4761 21.2909 23.4761 23.1777V23.5761H18.9292C18.9585 24.8827 19.6792 25.6445 20.8042 25.6445C21.6597 25.6445 22.187 25.2402 22.3569 24.8593L22.3803 24.8066H23.3998L23.3881 24.8535C23.1713 25.709 22.269 26.5527 20.7807 26.5527C18.9761 26.5527 17.8862 25.2871 17.8862 23.3066ZM18.9468 22.7617H22.439C22.3335 21.5137 21.6421 20.9219 20.7105 20.9219C19.7729 20.9219 19.0581 21.5605 18.9468 22.7617ZM24.938 20.125H25.9575V21.0625H26.0513C26.2915 20.4004 26.8833 20.0137 27.7388 20.0137C27.9322 20.0137 28.149 20.0371 28.2486 20.0547V21.0449C28.0377 21.0097 27.8443 20.9863 27.6216 20.9863C26.6489 20.9863 25.9575 21.6015 25.9575 22.5273V26.4414H24.938V20.125ZM29.9038 24.8008V20.9688H28.9077V20.125H29.9038V18.4902H30.9585V20.125H32.3413V20.9688H30.9585V24.543C30.9585 25.2871 31.2163 25.586 31.8726 25.586C32.0542 25.586 32.1538 25.5801 32.3414 25.5626V26.4298C32.1422 26.465 31.9488 26.4884 31.7496 26.4884C30.4487 26.4883 29.9038 26.0078 29.9038 24.8008ZM33.3696 24.6777V24.666C33.3696 23.541 34.2016 22.8906 35.6723 22.8027L37.4828 22.6914V22.1172C37.4828 21.3379 37.0082 20.916 36.0648 20.916C35.3089 20.916 34.8109 21.1972 34.6468 21.6894L34.6409 21.707H33.6214L33.6273 21.6718C33.7914 20.6816 34.7523 20.0136 36.1 20.0136C37.641 20.0136 38.5023 20.8046 38.5023 22.1171V26.4413H37.4828V25.5097H37.389C36.9906 26.1835 36.3285 26.5527 35.4788 26.5527C34.2778 26.5527 33.3696 25.8262 33.3696 24.6777ZM35.6899 25.668C36.727 25.668 37.4829 24.9883 37.4829 24.086V23.5118L35.7954 23.6173C34.8345 23.6759 34.4126 24.0157 34.4126 24.6427V24.6544C34.4126 25.293 34.9575 25.668 35.6899 25.668ZM40.0825 18.2031C40.0825 17.8164 40.3989 17.5 40.7856 17.5C41.1723 17.5 41.4887 17.8164 41.4887 18.2031C41.4887 18.5898 41.1723 18.9062 40.7856 18.9062C40.3989 18.9062 40.0825 18.5898 40.0825 18.2031ZM40.27 20.125H41.2895V26.4414H40.27V20.125ZM43.0913 20.125H44.1108V21.0742H44.2046C44.521 20.4062 45.1128 20.0137 46.0444 20.0137C47.4624 20.0137 48.2534 20.8516 48.2534 22.3516V26.4414H47.2339V22.5976C47.2339 21.4609 46.7651 20.916 45.7573 20.916C44.7495 20.916 44.1108 21.5957 44.1108 22.7031V26.4414H43.0913V20.125ZM49.9731 20.125H50.9926V21.0859H51.0864C51.3676 20.4062 51.9653 20.0136 52.7915 20.0136C53.647 20.0136 54.2446 20.4648 54.5376 21.121H54.6314C54.9712 20.453 55.6919 20.0136 56.565 20.0136C57.8541 20.0136 58.5748 20.7519 58.5748 22.0761V26.4413H57.5553V22.3104C57.5553 21.3788 57.1276 20.9159 56.2369 20.9159C55.358 20.9159 54.7779 21.578 54.7779 22.3807V26.4412H53.7584V22.1521C53.7584 21.4021 53.2428 20.9158 52.4459 20.9158C51.6197 20.9158 50.9928 21.6365 50.9928 22.5271V26.4412H49.9733L49.9731 20.125ZM59.978 23.3066V23.3007C59.978 21.3495 61.0913 20.0136 62.8081 20.0136C64.5249 20.0136 65.5679 21.2909 65.5679 23.1777V23.5761H61.021C61.0503 24.8827 61.771 25.6445 62.896 25.6445C63.7515 25.6445 64.2788 25.2402 64.4487 24.8593L64.4721 24.8066H65.4916L65.48 24.8535C65.2632 25.709 64.3609 26.5527 62.8726 26.5527C61.0679 26.5527 59.978 25.2871 59.978 23.3066ZM61.0386 22.7617H64.5308C64.4253 21.5137 63.7339 20.9219 62.8023 20.9219C61.8647 20.9219 61.1499 21.5605 61.0386 22.7617ZM67.0298 20.125H68.0493V21.0742H68.1431C68.4595 20.4062 69.0513 20.0137 69.9829 20.0137C71.4009 20.0137 72.1919 20.8516 72.1919 22.3516V26.4414H71.1724V22.5976C71.1724 21.4609 70.7036 20.916 69.6958 20.916C68.688 20.916 68.0493 21.5957 68.0493 22.7031V26.4414H67.0298V20.125ZM74.31 24.8008V20.9688H73.3139V20.125H74.31V18.4902H75.3647V20.125H76.7475V20.9688H75.3647V24.543C75.3647 25.2871 75.6225 25.586 76.2788 25.586C76.4604 25.586 76.56 25.5801 76.7476 25.5626V26.4298C76.5484 26.465 76.355 26.4884 76.1558 26.4884C74.855 26.4883 74.31 26.0078 74.31 24.8008Z" fill="white" fill-opacity="0.8"/>
</g>
<defs>
<clipPath id="clip0_1_277">
<rect width="77" height="44" fill="white" transform="translate(0.27002 0.5)"/>
</clipPath>
</defs>
</svg>
