<svg width="39" height="45" viewBox="0 0 39 45" fill="none" xmlns="http://www.w3.org/2000/svg">
<path d="M33.2729 22.8203H36.7529C36.7299 21.7013 36.0619 20.9633 35.0599 20.9633C34.0519 20.9633 33.3489 21.7013 33.2729 22.8203ZM37.7319 24.8653C37.4389 25.9433 36.4549 26.6113 35.0719 26.6113C33.3199 26.6113 32.2239 25.3453 32.2239 23.3473C32.2239 21.3613 33.3369 20.0723 35.0719 20.0723C36.7769 20.0723 37.8139 21.2853 37.8139 23.2483V23.6343H33.2729V23.6813C33.3259 24.9293 34.0229 25.7203 35.0949 25.7203C35.9099 25.7203 36.4609 25.4223 36.7239 24.8653H37.7319ZM25.4499 20.1833H26.4109V21.1793H26.5049C26.8209 20.4823 27.4369 20.0723 28.4029 20.0723C29.8209 20.0723 30.6119 20.9103 30.6119 22.4103V26.5003H29.6049V22.6563C29.6049 21.5193 29.1239 20.9803 28.1159 20.9803C27.1079 20.9803 26.4579 21.6543 26.4579 22.7613V26.5003H25.4499V20.1833ZM22.9509 23.3413C22.9509 21.8413 22.2769 20.9803 21.0819 20.9803C19.8859 20.9803 19.2119 21.8413 19.2119 23.3413C19.2119 24.8363 19.8859 25.7033 21.0819 25.7033C22.2769 25.7033 22.9509 24.8363 22.9509 23.3413ZM18.1689 23.3413C18.1689 21.3083 19.2829 20.0723 21.0819 20.0723C22.8799 20.0723 23.9939 21.3083 23.9939 23.3413C23.9939 25.3693 22.8799 26.6113 21.0819 26.6113C19.2829 26.6113 18.1689 25.3693 18.1689 23.3413ZM11.5329 17.6753H12.5409V21.1793H12.6339C12.9509 20.4823 13.6129 20.0723 14.5799 20.0723C15.9159 20.0723 16.7589 20.9273 16.7589 22.4103V26.5003H15.7519V22.6563C15.7519 21.5373 15.2479 20.9803 14.2929 20.9803C13.1619 20.9803 12.5409 21.6953 12.5409 22.7613V26.5003H11.5329V17.6753ZM5.5179 22.5453H7.3809C8.5829 22.5453 9.2799 21.9003 9.2799 20.7813C9.2799 19.6213 8.6059 18.9823 7.3809 18.9823H5.5179V22.5453ZM7.6569 18.0453C9.2559 18.0453 10.3639 19.1703 10.3639 20.7813C10.3639 22.3633 9.2329 23.4823 7.6449 23.4823H5.5179V26.5003H4.4629V18.0453H7.6569ZM1.5429 26.4993H2.5509V20.1833H1.5429V26.4993ZM1.3429 18.2613C1.3429 17.8753 1.6599 17.5583 2.0459 17.5583C2.4329 17.5583 2.7499 17.8753 2.7499 18.2613C2.7499 18.6483 2.4329 18.9653 2.0459 18.9653C1.6599 18.9653 1.3429 18.6483 1.3429 18.2613Z" fill="white" fill-opacity="0.8"/>
</svg>
