<svg width="31" height="45" viewBox="0 0 31 45" fill="none" xmlns="http://www.w3.org/2000/svg">
<g clip-path="url(#clip0_1_259)">
<path d="M26.7079 20.9629C27.7099 20.9629 28.3779 21.7009 28.4009 22.8199H24.9209C24.9969 21.7009 25.6999 20.9629 26.7079 20.9629ZM29.4619 23.6349V23.2479C29.4619 21.2849 28.4249 20.0719 26.7199 20.0719C24.9849 20.0719 23.8719 21.3609 23.8719 23.3479C23.8719 25.3459 24.9679 26.6109 26.7199 26.6109C28.1029 26.6109 29.0869 25.9429 29.3799 24.8649H28.3719C28.1079 25.4219 27.5579 25.7209 26.7429 25.7209C25.6709 25.7209 24.9739 24.9299 24.9209 23.6819V23.6349H29.4619ZM19.9149 20.1839H20.8749V21.1209H20.9689C21.1569 20.5059 21.8829 20.0719 22.7209 20.0719C22.8849 20.0719 23.0959 20.0839 23.2249 20.1019V21.1089C23.1429 21.0859 22.7799 21.0509 22.5809 21.0509C21.6199 21.0509 20.9219 22.1489 20.9219 22.5859V26.4999H19.9149V20.1839ZM15.6449 25.7029C14.4499 25.7029 13.7759 24.8359 13.7759 23.3419C13.7759 21.8419 14.4499 20.9809 15.6449 20.9809C16.8409 20.9809 17.5149 21.8419 17.5149 23.3419C17.5149 24.8359 16.8409 25.7029 15.6449 25.7029ZM15.6449 20.0719C13.8469 20.0719 12.7329 21.3089 12.7329 23.3419C12.7329 25.3689 13.8469 26.6109 15.6449 26.6109C17.4439 26.6109 18.5579 25.3689 18.5579 23.3419C18.5579 21.3089 17.4439 20.0719 15.6449 20.0719ZM10.1669 18.5969V20.2319H11.5739V21.0749H10.1669V24.6499C10.1669 25.3939 10.4489 25.7099 11.1049 25.7099C11.2869 25.7099 11.3859 25.7039 11.5739 25.6869V26.5359C11.3749 26.5709 11.1809 26.5949 10.9819 26.5949C9.68093 26.5949 9.15993 26.1139 9.15993 24.9069V21.0749H8.13992V20.2319H9.15993V18.5969H10.1669ZM2.06392 24.2909C2.19292 25.1759 3.03692 25.7379 4.23792 25.7379C5.37492 25.7379 6.21292 25.1229 6.21292 24.2849C6.21292 23.5649 5.68592 23.1079 4.51992 22.8149L3.43593 22.5329C1.90593 22.1469 1.24392 21.4549 1.24392 20.2539C1.24392 18.8179 2.44492 17.8459 4.23192 17.8459C5.86692 17.8459 7.08592 18.8179 7.17392 20.1839H6.11292C5.96692 19.3169 5.25192 18.8009 4.19692 18.8009C3.07192 18.8009 2.32792 19.3629 2.32792 20.2189C2.32792 20.8809 2.79092 21.2619 3.95692 21.5609L4.84192 21.7949C6.59392 22.2339 7.29692 22.9139 7.29692 24.1559C7.29692 25.7089 6.07192 26.6989 4.13892 26.6989C2.34592 26.6989 1.10892 25.7499 0.997925 24.2909H2.06392Z" fill="white" fill-opacity="0.8"/>
</g>
<defs>
<clipPath id="clip0_1_259">
<rect width="30" height="44" fill="white" transform="translate(0.140015 0.5)"/>
</clipPath>
</defs>
</svg>
