<svg width="36" height="45" viewBox="0 0 36 45" fill="none" xmlns="http://www.w3.org/2000/svg">
<path d="M29.6819 17.6758H30.6899V21.1798H30.7839C31.0999 20.4828 31.7619 20.0718 32.7289 20.0718C34.0649 20.0718 34.9089 20.9278 34.9089 22.4098V26.4998H33.9009V22.6558C33.9009 21.5368 33.3969 20.9808 32.4419 20.9808C31.3109 20.9808 30.6899 21.6958 30.6899 22.7618V26.4998H29.6819V17.6758ZM27.2619 22.1168C27.0979 21.4898 26.5409 20.9808 25.6329 20.9808C24.4959 20.9808 23.7809 21.8888 23.7809 23.3188C23.7809 24.7778 24.5079 25.7028 25.6329 25.7028C26.4819 25.7028 27.0739 25.3108 27.2619 24.5958H28.2809C28.0989 25.7558 27.1559 26.6118 25.6389 26.6118C23.8689 26.6118 22.7379 25.3278 22.7379 23.3188C22.7379 21.3498 23.8629 20.0718 25.6329 20.0718C27.1679 20.0718 28.1049 20.9918 28.2809 22.1168H27.2619ZM20.7289 18.5488V20.1838H22.1359V21.0278H20.7289V24.6018C20.7289 25.3458 21.0109 25.6618 21.6669 25.6618C21.8489 25.6618 21.9479 25.6558 22.1359 25.6388V26.4888C21.9359 26.5238 21.7429 26.5468 21.5439 26.5468C20.2429 26.5468 19.7219 26.0668 19.7219 24.8598V21.0278H18.7019V20.1838H19.7219V18.5488H20.7289ZM16.5289 24.1448V23.5648L14.8299 23.6758C13.8689 23.7398 13.4469 24.0738 13.4469 24.7068C13.4469 25.3518 13.9919 25.7268 14.7239 25.7268C15.7619 25.7268 16.5289 25.0468 16.5289 24.1448ZM12.4039 24.7308C12.4039 23.5998 13.2359 22.9488 14.7069 22.8618L16.5289 22.7498V22.1758C16.5289 21.3968 16.0429 20.9688 15.0989 20.9688C14.3439 20.9688 13.8159 21.2558 13.6759 21.7538H12.6559C12.7909 20.7398 13.7869 20.0718 15.1349 20.0718C16.6759 20.0718 17.5369 20.8638 17.5369 22.1758V26.4998H16.5759V25.5688H16.4819C16.0719 26.2418 15.3809 26.6118 14.5369 26.6118C13.3119 26.6118 12.4039 25.8848 12.4039 24.7308ZM4.71991 26.4998H3.72391L1.42091 18.0448H2.52191L4.20391 24.9178H4.27391L6.16691 18.0448H7.23291L9.12591 24.9178H9.19591L10.8779 18.0448H11.9789L9.67691 26.4998H8.68091L6.73491 19.8258H6.66491L4.71991 26.4998Z" fill="white" fill-opacity="0.8"/>
</svg>
