<svg width="45" height="45" viewBox="0 0 45 45" fill="none" xmlns="http://www.w3.org/2000/svg">
<g clip-path="url(#clip0_1_281)">
<path d="M42.6706 18.5337V20.1687H44.0766V21.0127H42.6706V24.5867C42.6706 25.3307 42.9516 25.6467 43.6076 25.6467C43.7896 25.6467 43.8896 25.6407 44.0766 25.6237V26.4727C43.8776 26.5087 43.6846 26.5317 43.4846 26.5317C42.1846 26.5317 41.6626 26.0517 41.6626 24.8447V21.0127H40.6436V20.1687H41.6626V18.5337H42.6706ZM36.5396 20.1687H37.5006V21.1057H37.5936C37.7816 20.4907 38.5076 20.0567 39.3456 20.0567C39.5096 20.0567 39.7206 20.0687 39.8496 20.0867V21.0947C39.7676 21.0707 39.4046 21.0357 39.2056 21.0357C38.2446 21.0357 37.5466 21.6797 37.5466 22.5707V26.4847H36.5396V20.1687ZM34.0766 23.3267C34.0766 21.8267 33.4026 20.9657 32.2076 20.9657C31.0126 20.9657 30.3386 21.8267 30.3386 23.3267C30.3386 24.8207 31.0126 25.6877 32.2076 25.6877C33.4026 25.6877 34.0766 24.8207 34.0766 23.3267ZM29.2956 23.3267C29.2956 21.2937 30.4086 20.0567 32.2076 20.0567C34.0066 20.0567 35.1196 21.2937 35.1196 23.3267C35.1196 25.3537 34.0066 26.5967 32.2076 26.5967C30.4086 26.5967 29.2956 25.3537 29.2956 23.3267ZM27.1876 23.3267C27.1876 21.8497 26.4956 20.9657 25.3416 20.9657C24.1986 20.9657 23.4786 21.8737 23.4786 23.3267C23.4786 24.7737 24.1986 25.6877 25.3356 25.6877C26.4956 25.6877 27.1876 24.8037 27.1876 23.3267ZM28.2306 23.3267C28.2306 25.3017 27.1816 26.5967 25.5756 26.5967C24.6736 26.5967 23.9466 26.2037 23.6016 25.5357H23.5076V28.5947H22.4996V20.1687H23.4606V21.2227H23.5546C23.9586 20.4967 24.7146 20.0567 25.5756 20.0567C27.1876 20.0567 28.2306 21.3407 28.2306 23.3267ZM20.1826 23.3267C20.1826 21.8497 19.4916 20.9657 18.3376 20.9657C17.1946 20.9657 16.4736 21.8737 16.4736 23.3267C16.4736 24.7737 17.1946 25.6877 18.3316 25.6877C19.4916 25.6877 20.1826 24.8037 20.1826 23.3267ZM21.2256 23.3267C21.2256 25.3017 20.1766 26.5967 18.5716 26.5967C17.6696 26.5967 16.9426 26.2037 16.5966 25.5357H16.5036V28.5947H15.4956V20.1687H16.4566V21.2227H16.5496C16.9546 20.4967 17.7106 20.0567 18.5716 20.0567C20.1826 20.0567 21.2256 21.3407 21.2256 23.3267ZM13.5806 26.4847H12.6196V25.4947H12.5256C12.2096 26.1977 11.5356 26.5967 10.5686 26.5967C9.15064 26.5967 8.41264 25.7527 8.41264 24.2587V20.1687H9.42064V24.0127C9.42064 25.1487 9.84264 25.6767 10.8506 25.6767C11.9636 25.6767 12.5726 25.0137 12.5726 23.9067V20.1687H13.5806V26.4847ZM1.89064 24.2757C2.01964 25.1607 2.86264 25.7227 4.06464 25.7227C5.20064 25.7227 6.03864 25.1077 6.03864 24.2697C6.03864 23.5497 5.51164 23.0927 4.34564 22.7997L3.26164 22.5177C1.73264 22.1317 1.06964 21.4397 1.06964 20.2387C1.06964 18.8037 2.27164 17.8307 4.05864 17.8307C5.69264 17.8307 6.91164 18.8037 6.99964 20.1687H5.93964C5.79264 19.3017 5.07764 18.7857 4.02364 18.7857C2.89864 18.7857 2.15364 19.3477 2.15364 20.2037C2.15364 20.8657 2.61664 21.2467 3.78264 21.5457L4.66764 21.7797C6.41964 22.2197 7.12264 22.8987 7.12264 24.1407C7.12264 25.6937 5.89864 26.6837 3.96464 26.6837C2.17164 26.6837 0.935639 25.7347 0.823639 24.2757H1.89064Z" fill="white" fill-opacity="0.8"/>
</g>
<defs>
<clipPath id="clip0_1_281">
<rect width="44" height="44" fill="white" transform="translate(0.550049 0.5)"/>
</clipPath>
</defs>
</svg>
