<svg width="8" height="22" viewBox="0 0 8 22" fill="none" xmlns="http://www.w3.org/2000/svg">
<g clip-path="url(#clip0_1_118)">
<path d="M1.38572 15.2654C1.21606 15.2654 1.07103 15.2065 0.950624 15.0889C0.830221 14.9712 0.77002 14.8276 0.77002 14.6579C0.77002 14.4882 0.832958 14.3405 0.958834 14.2146L4.2754 10.9062L0.958834 7.59788C0.832958 7.47201 0.77002 7.32424 0.77002 7.15458C0.77002 6.98492 0.830221 6.84126 0.950624 6.72359C1.07103 6.60593 1.21606 6.54709 1.38572 6.54709C1.54443 6.54709 1.68673 6.60456 1.8126 6.71949L5.55605 10.4465C5.6874 10.5669 5.75307 10.7202 5.75307 10.9062C5.75307 11.0814 5.6874 11.2346 5.55605 11.366L1.8126 15.093C1.69767 15.2079 1.55538 15.2654 1.38572 15.2654Z" fill="#2997FF"/>
</g>
<defs>
<clipPath id="clip0_1_118">
<rect width="7.13" height="21" fill="white" transform="matrix(1 0 0 -1 0.77002 21.3899)"/>
</clipPath>
</defs>
</svg>
