<svg width="9" height="22" viewBox="0 0 9 22" fill="none" xmlns="http://www.w3.org/2000/svg">
<g clip-path="url(#clip0_1_85)">
<path d="M1.5257 15.2654C1.35604 15.2654 1.21101 15.2065 1.09061 15.0889C0.970205 14.9712 0.910004 14.8276 0.910004 14.6579C0.910004 14.4882 0.972942 14.3405 1.09882 14.2146L4.41538 10.9062L1.09882 7.59788C0.972942 7.47201 0.910004 7.32424 0.910004 7.15458C0.910004 6.98492 0.970205 6.84126 1.09061 6.72359C1.21101 6.60593 1.35604 6.54709 1.5257 6.54709C1.68442 6.54709 1.82671 6.60456 1.95259 6.71949L5.69603 10.4465C5.82738 10.5669 5.89305 10.7202 5.89305 10.9062C5.89305 11.0814 5.82738 11.2346 5.69603 11.366L1.95259 15.093C1.83766 15.2079 1.69536 15.2654 1.5257 15.2654Z" fill="#0066CC"/>
</g>
<defs>
<clipPath id="clip0_1_85">
<rect width="7.13" height="21" fill="white" transform="matrix(1 0 0 -1 0.910004 21.3899)"/>
</clipPath>
</defs>
</svg>
