<svg width="10" height="30" viewBox="0 0 10 30" fill="none" xmlns="http://www.w3.org/2000/svg">
<g clip-path="url(#clip0_1_147)">
<path d="M0.854184 20.5017C0.640858 20.5017 0.458499 20.4277 0.307106 20.2798C0.155713 20.1318 0.0800171 19.9512 0.0800171 19.7379C0.0800171 19.5245 0.159154 19.3387 0.317428 19.1805L4.48761 15.0206L0.317428 10.8608C0.159154 10.7025 0.0800171 10.5167 0.0800171 10.3034C0.0800171 10.09 0.155713 9.90939 0.307106 9.76144C0.458499 9.61349 0.640858 9.53951 0.854184 9.53951C1.05375 9.53951 1.23267 9.61177 1.39094 9.75628L6.09787 14.4426C6.26303 14.594 6.3456 14.7866 6.3456 15.0206C6.3456 15.2408 6.26303 15.4335 6.09787 15.5987L1.39094 20.2849C1.24643 20.4295 1.06751 20.5017 0.854184 20.5017Z" fill="#0066CC"/>
</g>
<defs>
<clipPath id="clip0_1_147">
<rect width="9.51" height="29" fill="white" transform="matrix(1 0 0 -1 0.0800171 29.5)"/>
</clipPath>
</defs>
</svg>
