<svg width="20" height="22" viewBox="0 0 20 22" fill="none" xmlns="http://www.w3.org/2000/svg">
<g clip-path="url(#clip0_1_74)">
<path d="M8.51475 17.7368C7.74845 17.7368 7.00835 17.6362 6.29443 17.435C5.58051 17.2338 4.90931 16.9471 4.28084 16.575C3.65237 16.2029 3.08179 15.7604 2.56909 15.2477C2.05639 14.735 1.61398 14.1645 1.24186 13.536C0.869739 12.9075 0.583069 12.2363 0.381848 11.5224C0.180627 10.8085 0.0800171 10.0684 0.0800171 9.30209C0.0800171 8.53028 0.180627 7.7888 0.381848 7.07763C0.583069 6.36647 0.868361 5.69665 1.23773 5.06818C1.60709 4.43971 2.04812 3.86913 2.56082 3.35643C3.07352 2.84373 3.6441 2.40132 4.27257 2.0292C4.90104 1.65708 5.57224 1.37041 6.28616 1.16919C7.00008 0.967968 7.74018 0.867357 8.50648 0.867357C9.27828 0.867357 10.0211 0.967968 10.7351 1.16919C11.449 1.37041 12.1188 1.65708 12.7445 2.0292C13.3702 2.40132 13.9408 2.84373 14.4563 3.35643C14.9717 3.86913 15.4155 4.43971 15.7876 5.06818C16.1598 5.69665 16.4464 6.36647 16.6476 7.07763C16.8489 7.7888 16.9495 8.53028 16.9495 9.30209C16.9495 10.0684 16.8489 10.8085 16.6476 11.5224C16.4464 12.2363 16.1598 12.9075 15.7876 13.536C15.4155 14.1645 14.9731 14.735 14.4604 15.2477C13.9477 15.7604 13.3771 16.2029 12.7486 16.575C12.1202 16.9471 11.4504 17.2338 10.7392 17.435C10.028 17.6362 9.28655 17.7368 8.51475 17.7368ZM8.51475 16.331C9.29758 16.331 10.0404 16.2139 10.7433 15.9796C11.4462 15.7453 12.0899 15.4131 12.6742 14.9831C13.2586 14.5531 13.7658 14.0459 14.1958 13.4616C14.6258 12.8772 14.9579 12.2336 15.1922 11.5307C15.4265 10.8278 15.5437 10.0849 15.5437 9.30209C15.5437 8.51926 15.4252 7.77639 15.1881 7.0735C14.9511 6.37061 14.6175 5.72697 14.1875 5.14261C13.7575 4.55824 13.2503 4.05105 12.666 3.62105C12.0816 3.19104 11.438 2.85889 10.7351 2.62459C10.0322 2.3903 9.28931 2.27315 8.50648 2.27315C7.72365 2.27315 6.98216 2.3903 6.28202 2.62459C5.58189 2.85889 4.93963 3.19104 4.35527 3.62105C3.7709 4.05105 3.26509 4.55824 2.83784 5.14261C2.41059 5.72697 2.07982 6.37061 1.84552 7.0735C1.61122 7.77639 1.49407 8.51926 1.49407 9.30209C1.49407 10.0849 1.61122 10.8278 1.84552 11.5307C2.07982 12.2336 2.41059 12.8772 2.83784 13.4616C3.26509 14.0459 3.7709 14.5531 4.35527 14.9831C4.93963 15.4131 5.58326 15.7453 6.28616 15.9796C6.98905 16.2139 7.73192 16.331 8.51475 16.331ZM7.05934 12.3452C6.93806 12.4169 6.81815 12.4486 6.69963 12.4403C6.5811 12.432 6.48187 12.3893 6.40193 12.3121C6.32199 12.2349 6.28202 12.1357 6.28202 12.0144V6.59801C6.28202 6.47122 6.32337 6.37198 6.40606 6.30032C6.48876 6.22865 6.59075 6.18868 6.71203 6.18041C6.83331 6.17214 6.94908 6.20108 7.05934 6.26724L11.4917 8.88862C11.5965 8.94926 11.6667 9.03333 11.7026 9.14083C11.7384 9.24834 11.7398 9.35584 11.7067 9.46334C11.6736 9.57084 11.602 9.65767 11.4917 9.72382L7.05934 12.3452Z" fill="#0066CC"/>
</g>
<defs>
<clipPath id="clip0_1_74">
<rect width="19.52" height="21" fill="white" transform="matrix(1 0 0 -1 0.0800171 21.3899)"/>
</clipPath>
</defs>
</svg>
