<svg width="8" height="22" viewBox="0 0 8 22" fill="none" xmlns="http://www.w3.org/2000/svg">
<g clip-path="url(#clip0_1_60)">
<path d="M0.765723 15.2654C0.596064 15.2654 0.451032 15.2065 0.330629 15.0889C0.210226 14.9712 0.150024 14.8276 0.150024 14.6579C0.150024 14.4882 0.212962 14.3405 0.338839 14.2146L3.6554 10.9062L0.338839 7.59788C0.212962 7.47201 0.150024 7.32424 0.150024 7.15458C0.150024 6.98492 0.210226 6.84126 0.330629 6.72359C0.451032 6.60593 0.596064 6.54709 0.765723 6.54709C0.924436 6.54709 1.06673 6.60456 1.19261 6.71949L4.93605 10.4465C5.0674 10.5669 5.13308 10.7202 5.13308 10.9062C5.13308 11.0814 5.0674 11.2346 4.93605 11.366L1.19261 15.093C1.07768 15.2079 0.935382 15.2654 0.765723 15.2654Z" fill="#0066CC"/>
</g>
<defs>
<clipPath id="clip0_1_60">
<rect width="7.13" height="21" fill="white" transform="matrix(1 0 0 -1 0.150024 21.3899)"/>
</clipPath>
</defs>
</svg>
