<svg width="8" height="22" viewBox="0 0 8 22" fill="none" xmlns="http://www.w3.org/2000/svg">
<g clip-path="url(#clip0_1_46)">
<path d="M0.995703 15.2654C0.826044 15.2654 0.681013 15.2065 0.56061 15.0889C0.440206 14.9712 0.380005 14.8276 0.380005 14.6579C0.380005 14.4882 0.442943 14.3405 0.568819 14.2146L3.88538 10.9062L0.568819 7.59788C0.442943 7.47201 0.380005 7.32424 0.380005 7.15458C0.380005 6.98492 0.440206 6.84126 0.56061 6.72359C0.681013 6.60593 0.826044 6.54709 0.995703 6.54709C1.15442 6.54709 1.29671 6.60456 1.42259 6.71949L5.16603 10.4465C5.29738 10.5669 5.36306 10.7202 5.36306 10.9062C5.36306 11.0814 5.29738 11.2346 5.16603 11.366L1.42259 15.093C1.30766 15.2079 1.16536 15.2654 0.995703 15.2654Z" fill="#0066CC"/>
</g>
<defs>
<clipPath id="clip0_1_46">
<rect width="7.13" height="21" fill="white" transform="matrix(1 0 0 -1 0.380005 21.3899)"/>
</clipPath>
</defs>
</svg>
