<svg width="11" height="30" viewBox="0 0 11 30" fill="none" xmlns="http://www.w3.org/2000/svg">
<g clip-path="url(#clip0_1_131)">
<path d="M1.59417 20.1417C1.38085 20.1417 1.19849 20.0677 1.0471 19.9198C0.895704 19.7718 0.820007 19.5912 0.820007 19.3779C0.820007 19.1646 0.899144 18.9788 1.05742 18.8205L5.2276 14.6606L1.05742 10.5008C0.899144 10.3425 0.820007 10.1567 0.820007 9.94337C0.820007 9.73004 0.895704 9.54941 1.0471 9.40145C1.19849 9.2535 1.38085 9.17953 1.59417 9.17953C1.79374 9.17953 1.97266 9.25178 2.13093 9.39629L6.83786 14.0826C7.00302 14.234 7.0856 14.4267 7.0856 14.6606C7.0856 14.8808 7.00302 15.0735 6.83786 15.2387L2.13093 19.925C1.98642 20.0695 1.8075 20.1417 1.59417 20.1417Z" fill="#0066CC"/>
</g>
<defs>
<clipPath id="clip0_1_131">
<rect width="9.51" height="29" fill="white" transform="matrix(1 0 0 -1 0.820007 29.14)"/>
</clipPath>
</defs>
</svg>
