<svg width="11" height="30" viewBox="0 0 11 30" fill="none" xmlns="http://www.w3.org/2000/svg">
<g clip-path="url(#clip0_1_134)">
<path d="M1.62417 20.1417C1.41085 20.1417 1.22849 20.0677 1.07709 19.9198C0.925702 19.7718 0.850006 19.5912 0.850006 19.3779C0.850006 19.1646 0.929143 18.9788 1.08742 18.8205L5.25759 14.6606L1.08742 10.5008C0.929143 10.3425 0.850006 10.1567 0.850006 9.94337C0.850006 9.73004 0.925702 9.54941 1.07709 9.40145C1.22849 9.2535 1.41085 9.17953 1.62417 9.17953C1.82374 9.17953 2.00265 9.25178 2.16093 9.39629L6.86786 14.0826C7.03302 14.234 7.11559 14.4267 7.11559 14.6606C7.11559 14.8808 7.03302 15.0735 6.86786 15.2387L2.16093 19.925C2.01642 20.0695 1.8375 20.1417 1.62417 20.1417Z" fill="#0066CC"/>
</g>
<defs>
<clipPath id="clip0_1_134">
<rect width="9.51" height="29" fill="white" transform="matrix(1 0 0 -1 0.850006 29.14)"/>
</clipPath>
</defs>
</svg>
