<svg width="8" height="22" viewBox="0 0 8 22" fill="none" xmlns="http://www.w3.org/2000/svg">
<g clip-path="url(#clip0_1_71)">
<path d="M0.805701 15.2654C0.636042 15.2654 0.49101 15.2065 0.370607 15.0889C0.250204 14.9712 0.190002 14.8276 0.190002 14.6579C0.190002 14.4882 0.25294 14.3405 0.378817 14.2146L3.69538 10.9062L0.378817 7.59788C0.25294 7.47201 0.190002 7.32424 0.190002 7.15458C0.190002 6.98492 0.250204 6.84126 0.370607 6.72359C0.49101 6.60593 0.636042 6.54709 0.805701 6.54709C0.964414 6.54709 1.10671 6.60456 1.23258 6.71949L4.97603 10.4465C5.10738 10.5669 5.17305 10.7202 5.17305 10.9062C5.17305 11.0814 5.10738 11.2346 4.97603 11.366L1.23258 15.093C1.11765 15.2079 0.97536 15.2654 0.805701 15.2654Z" fill="#0066CC"/>
</g>
<defs>
<clipPath id="clip0_1_71">
<rect width="7.13" height="21" fill="white" transform="matrix(1 0 0 -1 0.190002 21.3899)"/>
</clipPath>
</defs>
</svg>
