<svg width="16" height="45" viewBox="0 0 16 45" fill="none" xmlns="http://www.w3.org/2000/svg">
<g clip-path="url(#clip0_1_283)">
<path d="M14.988 27.702L11.118 23.832C11.819 22.903 12.24 21.751 12.24 20.5C12.24 17.44 9.75095 14.95 6.68995 14.95C3.62995 14.95 1.13995 17.44 1.13995 20.5C1.13995 23.561 3.62995 26.05 6.68995 26.05C7.94095 26.05 9.09295 25.629 10.022 24.928L13.892 28.798C14.043 28.949 14.242 29.026 14.44 29.026C14.638 29.026 14.836 28.95 14.988 28.798C15.291 28.495 15.291 28.005 14.988 27.702ZM2.23995 20.5C2.23995 18.046 4.23695 16.05 6.68995 16.05C9.14395 16.05 11.14 18.047 11.14 20.5C11.14 22.953 9.14395 24.95 6.68995 24.95C4.23595 24.95 2.23995 22.954 2.23995 20.5Z" fill="white" fill-opacity="0.8"/>
</g>
<defs>
<clipPath id="clip0_1_283">
<rect width="15" height="44" fill="white" transform="translate(0.689941 0.5)"/>
</clipPath>
</defs>
</svg>
