<svg width="14" height="45" viewBox="0 0 14 45" fill="none" xmlns="http://www.w3.org/2000/svg">
<path d="M13.0729 18.1825C12.552 18.5014 12.1206 18.9473 11.8189 19.4783C11.5173 20.0094 11.3553 20.6083 11.3481 21.219C11.3502 21.9064 11.5538 22.578 11.9338 23.1508C12.3138 23.7235 12.8535 24.1722 13.486 24.4413C13.2366 25.2459 12.8676 26.0084 12.3912 26.7031C11.7096 27.6843 10.9969 28.6654 9.91251 28.6654C8.82811 28.6654 8.54921 28.0354 7.29951 28.0354C6.08081 28.0354 5.64701 28.6861 4.65551 28.6861C3.66401 28.6861 2.97211 27.7772 2.17681 26.6618C1.12628 25.0992 0.548917 23.2667 0.514008 21.3842C0.514008 18.2858 2.52801 16.6437 4.51091 16.6437C5.56441 16.6437 6.44231 17.3356 7.10331 17.3356C7.73331 17.3356 8.71451 16.6023 9.91251 16.6023C10.5285 16.5864 11.1389 16.7222 11.69 16.9978C12.2411 17.2733 12.716 17.6802 13.0729 18.1825ZM9.34451 15.2907C9.87261 14.6695 10.1716 13.8858 10.1914 13.0707C10.1923 12.9632 10.1819 12.856 10.1604 12.7507C9.25327 12.8393 8.41441 13.2717 7.81591 13.9591C7.28271 14.5556 6.97251 15.3183 6.93801 16.1176C6.93841 16.2148 6.9488 16.3117 6.96901 16.4068C7.04052 16.4203 7.11313 16.4272 7.18591 16.4275C7.60398 16.3942 8.01092 16.2763 8.382 16.0809C8.75309 15.8855 9.08055 15.6166 9.34451 15.2907Z" fill="white" fill-opacity="0.8"/>
</svg>
